<?xml version="1.0" encoding="UTF-8"?>
<!DOCTYPE svg PUBLIC "-//W3C//DTD SVG 1.1//EN" "http://www.w3.org/Graphics/SVG/1.1/DTD/svg11.dtd">
<!-- Creator: CorelDRAW -->
<svg xmlns="http://www.w3.org/2000/svg" xml:space="preserve" width="38.0998mm" height="21.1666mm" version="1.1" style="shape-rendering:geometricPrecision; text-rendering:geometricPrecision; image-rendering:optimizeQuality; fill-rule:evenodd; clip-rule:evenodd"
viewBox="0 0 3809.98 2116.66"
 xmlns:xlink="http://www.w3.org/1999/xlink"
 xmlns:xodm="http://www.corel.com/coreldraw/odm/2003">
 <defs>
  <style type="text/css">
   <![CDATA[
    .str0 {stroke:black;stroke-width:10;stroke-miterlimit:22.9256}
    .str1 {stroke:#FFFCFD;stroke-width:10;stroke-miterlimit:22.9256}
    .fil2 {fill:#373435}
    .fil0 {fill:#F58634}
    .fil1 {fill:#00AFEF}
   ]]>
  </style>
 </defs>
 <g id="Camada_x0020_1">
  <metadata id="CorelCorpID_0Corel-Layer"/>
  <g id="_2669092173296">
   <path class="fil0 str0" d="M1338.1 1355.72c-0.13,2.83 -0.13,5.76 0,8.83 -0.33,6.34 3.23,18.67 5.79,24.38 4.95,11.09 9.43,17.04 17.14,24.84l8.38 6.88c7.5,5.17 14.36,8.62 23.2,11.14 5.91,1.68 12.04,2.58 18.19,2.72l3.65 0c13.94,-0.33 27.85,-4.51 39.49,-12.27 1.62,-1.08 2.96,-1.96 4.51,-3.12 2.19,-1.65 2.94,-1.84 4.35,-3.29 5.1,-5.21 10.1,-10.1 15.26,-15.26l30.37 -30.69c10.26,-10.25 20.27,-20.28 30.53,-30.53 5.16,-5.17 10.1,-10.1 15.27,-15.26l144.69 -145.33c1.41,-1.41 2.26,-2.6 3.65,-3.98 22.96,-22.75 45.73,-45.99 68.7,-68.69l3.65 -3.97c4.19,-4.18 66.96,-67.41 68.78,-68.61 0.76,-0.32 1.86,-1.83 2.26,-2.39 1.32,-1.78 2.06,-2.88 3.81,-3.97l1.55 -1.57c1.85,-2.92 56.48,-55.81 65.12,-65.61l128.16 -128.48 5.85 -6.87c2.94,-3.65 5.21,-6.77 7.65,-10.8l4.16 -8.24c0.66,-1.53 1.29,-3.11 1.77,-4.58 6.3,-18.85 5.53,-36.58 -1.18,-53.12 -9.02,-22.27 -28.7,-40.11 -54.98,-45.18 -21.67,-4.2 -42.75,1.84 -58.6,13.75 -9.55,7.18 -27.96,27.16 -37.92,37.13l-62.49 62.49c-4.28,4.27 -8.13,8.44 -12.4,12.72l-124.82 125.13c-8.46,8.46 -16.51,16.82 -24.96,25.28l-131.04 131.34c-0.68,0.69 -0.73,0.85 -1.29,1.56 -0.52,0.65 -0.95,1.02 -1.56,1.62 -6.1,6.07 -64.14,64.55 -65.89,65.75l-0.02 -701.53c1.82,1.22 5.86,5.69 7.72,7.55 2.62,2.63 5,5.02 7.63,7.64l15.1 15.42c0.72,0.71 1.19,1.18 1.91,1.92 1.5,1.56 0.84,0.73 2.2,1.14l8.95 6.14c1.6,1.01 3.18,1.82 4.94,2.7 26.39,13.19 56.32,9.06 77.31,-6.76l6.3 -5.13c7.35,-7.07 13.49,-14.99 17.55,-24.76 3.72,-8.98 5.01,-13.74 6.18,-24.35 1.32,-12.15 -2.16,-28.05 -7.27,-38.44 -0.86,-1.75 -1.7,-3.18 -2.65,-4.98l-6.76 -10.05c-0.51,-1.06 -1.77,-2.02 -2.6,-2.85 -2.67,-2.68 -5.12,-5.12 -7.79,-7.79l-145.02 -145.66c-3.1,-3.1 -1.74,-2.3 -5.03,-4.49 -0.45,-0.29 -0.62,-0.5 -1.01,-0.91l-15.16 -11.54c-8.11,-4.67 -19.51,-8.81 -28.98,-9.51 -10.49,-0.76 -19.12,-0.13 -27.53,2.32 -10.16,2.95 -16.88,6.31 -25.46,12.7l-4.15 3.49c-1.28,1.3 -2.14,1.58 -3.97,3.66l-3.56 4.07c-2.88,3.71 -3.8,4.63 -6.41,8.86 -2.06,3.35 -3.68,6.51 -5.32,10.27 -3.6,8.27 -4.46,14.5 -5.58,23.02 -0.41,3.09 -0.72,-0.02 -0.68,5.05l0.36 1059.05zm0 8.83c-0.13,-3.07 -0.13,-6 0,-8.83l0 8.83z"/>
   <path class="fil1 str0" d="M2023.52 1020.15c-0.08,0.54 -0.11,0.94 -0.29,1.44 -0.3,0.82 -0.22,0.49 -0.49,0.84 -0.06,2.06 -0.99,4.45 -1.18,6.62l-0.74 4.08c0,2.41 -0.33,3.41 -0.32,5.78 0.02,2.01 -0.03,4.05 0,6.06 0.12,10.16 4.63,25.07 9.61,33.31l6.13 9.14c2.32,3.13 -0.56,0.16 4.23,4.99 1.24,1.26 1.55,2.12 3.06,3.3 2.43,1.86 4.17,3.97 6.31,6.09 0.53,0.52 0.95,0.88 1.42,1.44 3.84,4.6 18.68,18.98 23.07,23.36l39.92 39.91c1.18,1.17 1.79,2.13 3.01,3.34l76.79 77.12c0.62,0.61 1,0.97 1.61,1.61 0.79,0.82 0.83,1.24 1.54,0.86 0.87,0.93 1.53,1.59 2.42,2.46l8.44 6.82c7.15,4.78 11.83,7.24 19.94,9.96 2.6,0.88 5.32,1.52 8.09,2.09 13.06,2.64 23.15,1.53 35.39,-1.56 9.37,-2.35 18.8,-8.2 26.15,-13.91 4.89,-3.8 10.79,-10.47 14.23,-15.66 6.86,-10.31 10.84,-20.26 12.41,-32.76 1.5,-11.98 0.89,-11.41 0.89,-24.23l0 -1041.79c0,-8.77 0.32,-11.27 -1.46,-20.18 -2.47,-12.4 -9.59,-27.09 -18.34,-35.72 -1.07,-1.05 -1.43,-1.93 -2.55,-2.85l-5.95 -5.18c-0.54,-0.43 -0.81,-0.69 -1.4,-1.14 -0.66,-0.49 -1.05,-0.69 -1.69,-1.18 -19.37,-14.5 -45.92,-17.59 -68.9,-9.57 -4.05,1.41 -11.01,4.87 -14.45,7.18l-8.05 5.62c-1.68,0.81 -13.39,12.89 -15.15,14.75 -0.32,0.34 -0.28,0.3 -0.6,0.68l-91.78 92.34c-7.34,7.33 -14.45,14.44 -21.78,21.79l-16.22 16.21c-1.95,1.95 -3.43,3.76 -5.4,5.73l-65.2 65.51c-63.54,63.45 -126.67,127.3 -190.17,190.8 -1.7,1.7 -4.12,3.84 -5.53,5.6 -2.8,3.5 -39.26,39.51 -43.44,43.7l-124.83 125.45c-1.23,1.23 -4.9,4.31 -5.31,5.74l-10.52 13.4c-6.87,11.55 -8.99,18.35 -10.89,32.04 -1.16,8.39 0.02,17.86 1.87,25.99 1.08,4.73 3.3,10.36 5.22,14.18 5.86,11.61 11.6,18.39 21.52,26.5l8.58 5.72c4.03,2.19 5.15,2.8 9.7,4.62 7.92,3.18 14.9,4.41 23.51,5.12 11.46,0.95 29.3,-3.18 39.15,-9.15 10.82,-6.55 11.82,-7.68 20.07,-15.87l1.02 -1.36c2.22,-1.13 54.68,-54.69 56.37,-56.37l49.29 -49.29c2.49,-2.49 4.51,-4.84 6.99,-7.32 18.84,-18.83 37.45,-37.44 56.29,-56.28l70.29 -70.6c0.64,-0.66 1.1,-1.07 1.75,-1.74l5.08 -5.42c42.24,-42.25 84.37,-85.06 126.72,-127.04l63.29 -63.6c3.01,-3.01 12.08,-12.98 14.11,-14.24l-0.03 701.86c-1.85,-1.23 -6.14,-5.97 -8.04,-7.88 -0.71,-0.71 -1.19,-1.19 -1.91,-1.91l-6.04 -6.35c-2.03,-2.04 -16.86,-17.4 -18.01,-17.66 -0.83,-0.19 -0.42,0.51 -2.51,-1.26 -10.01,-8.49 -27.36,-14.81 -41.42,-15.18 -1.6,-0.04 -1.77,-0.32 -3.48,-0.35l-11.16 0.96c-26.23,3.58 -48.49,22.03 -58.18,46.44 -0.76,1.93 -1.31,4.11 -2.07,6.05z"/>
  </g>
  <path class="fil2 str1" d="M762.46 1585.71l322.11 0 45.36 46.7 0 91.33 -91.36 0 0 -46 -229.42 0 0 276.07 229.42 0 0 -79.53 -115.69 0 0 -92.01 207.05 0 0 218.24 -45.36 45.36 -322.11 0 -45.35 -45.36 0 -368.1 45.35 -46.7zm-104.51 322.76l-113.72 137.4 -92.03 0 -69.67 -82.19 -68.41 82.19 -91.99 0 -115.05 -137.4 0 -322.76 92.03 0 0 276.78 69.68 91.32 67.74 -91.32 0 -276.78 91.99 0 0 276.78 69.68 91.32 68.38 -91.32 0 -276.78 91.37 0 0 322.76zm1259.51 -322.76l412.82 0 0 92.03 -159.74 0 0 368.13 -92.04 0 0 -368.13 -161.04 0 0 -92.03zm-308.95 414.8l-45.38 45.36 -322.08 0 -45.36 -45.36 0 -92.04 92.01 0 0 45.34 229.41 0 0 -91.32 -276.06 0 -45.36 -32.9 0 -197.18 45.36 -46.7 322.08 0 45.38 46.7 0 91.33 -91.4 0 0 -46 -229.41 0 0 92.02 275.43 0 45.38 46.01 0 184.74zm1262.78 -414.8l322.1 0 45.34 46.7 0 91.33 -91.37 0 0 -46 -229.41 0 0 276.07 229.41 0 0 -45.34 91.37 0 0 92.04 -45.34 45.36 -322.1 0 -45.35 -45.36 0 -368.1 45.35 -46.7zm-104.54 368.1l0 92.06 -390.47 0 0 -460.16 390.47 0 0 92.03 -298.45 0 0 92.68 275.47 0 0 92.07 -275.47 0 0 91.32 298.45 0zm943.99 -368.1l0 460.16 -91.39 0 0 -183.38 -229.42 0 0 183.38 -92.03 0 0 -460.16 92.03 0 0 184.71 229.42 0 0 -184.71 91.39 0z"/>
 </g>
</svg>
